<svg width="24" height="24" viewBox="0 0 24 24" fill="none" xmlns="http://www.w3.org/2000/svg">
<g clip-path="url(#clip0_24_25365)">
<rect width="24" height="24" fill="white"/>
<path d="M17.5002 18.4999V19.4999H16.0002V18.4999H17.5002ZM8.00024 18.4999V19.4999H6.50024V18.4999H8.00024ZM5.21802 18.4882C5.30228 18.4925 5.39567 18.4935 5.50024 18.4951V19.496C5.25137 19.4925 5.02863 19.4848 4.83618 19.4589C4.67399 19.4371 4.51524 19.4016 4.36548 19.3408L5.21802 18.4882ZM19.634 19.3408C19.4845 19.4015 19.3262 19.4371 19.1643 19.4589H19.1633C18.9711 19.4848 18.7487 19.4925 18.5002 19.496V18.4951C18.6044 18.4935 18.6975 18.4925 18.7815 18.4882L19.634 19.3408ZM4.50317 17.4999C4.50471 17.6041 4.50672 17.6972 4.51099 17.7812L3.65845 18.6337C3.5978 18.4843 3.56302 18.3258 3.54126 18.164C3.51539 17.9715 3.5077 17.7487 3.50415 17.4999H4.50317ZM20.4963 17.4999C20.4928 17.7487 20.4851 17.9715 20.4592 18.164C20.4375 18.3259 20.4018 18.4842 20.3411 18.6337L19.4875 17.7802C19.4918 17.6964 19.4948 17.6037 19.4963 17.4999H20.4963ZM10.0002 14.4999V17.4999H9.00024V14.4999H10.0002ZM15.0002 14.4999V17.4999H14.0002V14.4999H15.0002ZM20.5002 10.6806V16.4999H19.5002V10.6806H20.5002ZM4.50024 10.6806V16.4999H3.50024V10.6806H4.50024ZM12.5002 11.0361C12.9663 11.1016 13.4799 11.2658 13.925 11.5995C14.4643 12.0041 14.86 12.6252 14.969 13.4999H13.9573C13.9233 13.3046 13.8706 13.1323 13.7981 12.9804C13.6672 12.7064 13.4906 12.5249 13.3245 12.4003C13.0811 12.2178 12.7901 12.1061 12.5002 12.0488V11.0361ZM11.5002 12.0478C11.2101 12.1051 10.9187 12.2176 10.675 12.4003C10.509 12.5249 10.3323 12.7065 10.2014 12.9804C10.1289 13.1322 10.0762 13.3047 10.0422 13.4999H9.03052C9.13945 12.6252 9.53613 12.0041 10.0754 11.5995C10.5206 11.2659 11.0341 11.1016 11.5002 11.0361V12.0478ZM20.4788 9.52142C20.4847 9.57369 20.4875 9.62675 20.4905 9.6806H20.1545L20.4788 9.52142ZM3.84497 9.6806H3.50903C3.51197 9.62679 3.51389 9.57365 3.51978 9.52142L3.84497 9.6806ZM4.28345 8.78217L3.96021 8.62396C3.99776 8.58742 4.03777 8.5527 4.07837 8.51752L4.28345 8.78217ZM19.9202 8.51752C19.9608 8.5527 20.0007 8.58743 20.0383 8.62396L19.7151 8.78217L19.9202 8.51752ZM11.3674 2.99994L10.9924 3.48431L10.6858 3.87885L11.0813 4.18549L11.1838 4.26459L5.47583 8.68842L4.86353 7.8974L11.2981 2.9101L11.3674 2.99994ZM19.136 7.8974L18.5227 8.68842L12.8157 4.26459L12.9192 4.18549L13.3137 3.87885L13.0081 3.48431L12.6321 2.99994L12.7014 2.9101L19.136 7.8974Z" fill="#0066F9" stroke="#0066F9"/>
</g>
<defs>
<clipPath id="clip0_24_25365">
<rect width="24" height="24" fill="white"/>
</clipPath>
</defs>
</svg>
