<svg width="25" height="24" viewBox="0 0 25 24" fill="none" xmlns="http://www.w3.org/2000/svg">
<path d="M11.2542 4.96556H5.96425C5.79963 4.96556 5.64176 5.03095 5.52536 5.14735C5.40895 5.26375 5.34356 5.42163 5.34356 5.58625V10.9656C5.34356 11.1302 5.40895 11.288 5.52536 11.4045C5.64176 11.5209 5.79963 11.5862 5.96425 11.5862H11.2542C11.4188 11.5862 11.5767 11.5209 11.6931 11.4045C11.8095 11.288 11.8749 11.1302 11.8749 10.9656V5.58625C11.8749 5.42163 11.8095 5.26375 11.6931 5.14735C11.5767 5.03095 11.4188 4.96556 11.2542 4.96556ZM10.6335 10.3449H6.58494V6.20694H10.6335V10.3449ZM9.4368 7.44832H7.78163V9.10349H9.4368V7.44832ZM2.81611 9.93108C3.0356 9.93108 3.2461 9.84388 3.4013 9.68868C3.55651 9.53348 3.6437 9.32298 3.6437 9.10349V4.13797C3.64392 3.91855 3.73118 3.70818 3.88633 3.55302C4.04149 3.39787 4.25186 3.3106 4.47128 3.31038H9.4368C9.65629 3.31038 9.86679 3.22319 10.022 3.06799C10.1772 2.91279 10.2644 2.70229 10.2644 2.4828C10.2644 2.26331 10.1772 2.05281 10.022 1.89761C9.86679 1.7424 9.65629 1.65521 9.4368 1.65521H4.47128C3.81302 1.65587 3.1819 1.91766 2.71643 2.38312C2.25097 2.84859 1.98918 3.4797 1.98853 4.13797V9.10349C1.98853 9.32298 2.07572 9.53348 2.23092 9.68868C2.38612 9.84388 2.59662 9.93108 2.81611 9.93108ZM11.2542 12.4138H5.96425C5.79963 12.4138 5.64176 12.4792 5.52536 12.5956C5.40895 12.712 5.34356 12.8699 5.34356 13.0345V18.4138C5.34356 18.5785 5.40895 18.7363 5.52536 18.8527C5.64176 18.9691 5.79963 19.0345 5.96425 19.0345H11.2542C11.4188 19.0345 11.5767 18.9691 11.6931 18.8527C11.8095 18.7363 11.8749 18.5785 11.8749 18.4138V13.0345C11.8749 12.8699 11.8095 12.712 11.6931 12.5956C11.5767 12.4792 11.4188 12.4138 11.2542 12.4138ZM10.6335 17.7931H6.58494V13.6552H10.6335V17.7931ZM9.4368 14.8966H7.78163V16.5518H9.4368V14.8966ZM9.4368 20.6897H4.47128C4.25186 20.6895 4.04149 20.6022 3.88633 20.4471C3.73118 20.2919 3.64392 20.0815 3.6437 19.8621V14.8966C3.6437 14.6771 3.55651 14.4666 3.4013 14.3114C3.2461 14.1562 3.0356 14.069 2.81611 14.069C2.59662 14.069 2.38612 14.1562 2.23092 14.3114C2.07572 14.4666 1.98853 14.6771 1.98853 14.8966V19.8621C1.98918 20.5204 2.25097 21.1515 2.71643 21.617C3.1819 22.0824 3.81302 22.3442 4.47128 22.3449H9.4368C9.65629 22.3449 9.86679 22.2577 10.022 22.1025C10.1772 21.9473 10.2644 21.7368 10.2644 21.5173C10.2644 21.2978 10.1772 21.0873 10.022 20.9321C9.86679 20.7769 9.65629 20.6897 9.4368 20.6897ZM21.8506 14.069C21.6311 14.069 21.4206 14.1562 21.2654 14.3114C21.1102 14.4666 21.023 14.6771 21.023 14.8966V19.8621C21.0228 20.0815 20.9355 20.2919 20.7804 20.4471C20.6252 20.6022 20.4148 20.6895 20.1954 20.6897H15.2299C15.0104 20.6897 14.7999 20.7769 14.6447 20.9321C14.4895 21.0873 14.4023 21.2978 14.4023 21.5173C14.4023 21.7368 14.4895 21.9473 14.6447 22.1025C14.7999 22.2577 15.0104 22.3449 15.2299 22.3449H20.1954C20.8537 22.3442 21.4848 22.0824 21.9503 21.617C22.4157 21.1515 22.6775 20.5204 22.6782 19.8621V14.8966C22.6782 14.6771 22.591 14.4666 22.4358 14.3114C22.2806 14.1562 22.0701 14.069 21.8506 14.069ZM14.8161 16.9656H13.1609V18.6207H14.8161V16.9656ZM13.1609 14.4778H14.8161V12.8227H13.1609V14.4778ZM20.1954 1.65521H15.2299C15.0104 1.65521 14.7999 1.7424 14.6447 1.89761C14.4895 2.05281 14.4023 2.26331 14.4023 2.4828C14.4023 2.70229 14.4895 2.91279 14.6447 3.06799C14.7999 3.22319 15.0104 3.31038 15.2299 3.31038H20.1954C20.4148 3.3106 20.6252 3.39787 20.7804 3.55302C20.9355 3.70818 21.0228 3.91855 21.023 4.13797V9.10349C21.023 9.32298 21.1102 9.53348 21.2654 9.68868C21.4206 9.84388 21.6311 9.93108 21.8506 9.93108C22.0701 9.93108 22.2806 9.84388 22.4358 9.68868C22.591 9.53348 22.6782 9.32298 22.6782 9.10349V4.13797C22.6775 3.4797 22.4157 2.84859 21.9503 2.38312C21.4848 1.91766 20.8537 1.65587 20.1954 1.65521ZM15.2299 9.10349H16.8851V7.44832H15.2299V9.10349ZM16.8851 16.5518V14.8966H15.2299V16.5518H16.8851ZM18.7025 11.5862C18.8671 11.5862 19.0249 11.5209 19.1413 11.4045C19.2578 11.288 19.3231 11.1302 19.3231 10.9656V5.58625C19.3231 5.42163 19.2578 5.26375 19.1413 5.14735C19.0249 5.03095 18.8671 4.96556 18.7025 4.96556H13.4125C13.2479 4.96556 13.09 5.03095 12.9736 5.14735C12.8572 5.26375 12.7918 5.42163 12.7918 5.58625V10.9656C12.7918 11.1302 12.8572 11.288 12.9736 11.4045C13.09 11.5209 13.2479 11.5862 13.4125 11.5862H18.7025ZM14.0332 6.20694H18.0818V10.3449H14.0332V6.20694ZM18.954 12.8227H17.2989V14.4778H18.954V12.8227ZM17.2989 18.6207H18.954V16.9656H17.2989V18.6207Z" fill="#99A0AE"/>
</svg>
