<svg width="32" height="32" viewBox="0 0 32 32" fill="none" xmlns="http://www.w3.org/2000/svg">
<path d="M16 28C9.3724 28 4 22.6276 4 16C4 9.3724 9.3724 4 16 4C22.6276 4 28 9.3724 28 16C28 22.6276 22.6276 28 16 28ZM16 25.6C18.5461 25.6 20.9879 24.5886 22.7882 22.7882C24.5886 20.9879 25.6 18.5461 25.6 16C25.6 13.4539 24.5886 11.0121 22.7882 9.21178C20.9879 7.41143 18.5461 6.4 16 6.4C13.4539 6.4 11.0121 7.41143 9.21178 9.21178C7.41143 11.0121 6.4 13.4539 6.4 16C6.4 18.5461 7.41143 20.9879 9.21178 22.7882C11.0121 24.5886 13.4539 25.6 16 25.6ZM14.8 19.6H17.2V22H14.8V19.6ZM17.2 17.626V18.4H14.8V16.6C14.8 16.2817 14.9264 15.9765 15.1515 15.7515C15.3765 15.5264 15.6817 15.4 16 15.4C16.3409 15.4 16.6748 15.3032 16.9628 15.1208C17.2508 14.9384 17.4811 14.678 17.6269 14.3699C17.7727 14.0618 17.828 13.7186 17.7864 13.3802C17.7448 13.0419 17.6079 12.7223 17.3918 12.4587C17.1757 12.1951 16.8891 11.9983 16.5655 11.8912C16.2418 11.7841 15.8944 11.771 15.5637 11.8536C15.233 11.9363 14.9325 12.1111 14.6972 12.3578C14.462 12.6045 14.3016 12.9129 14.2348 13.2472L11.8804 12.7756C12.0264 12.0461 12.3634 11.3684 12.8571 10.8119C13.3508 10.2554 13.9834 9.8399 14.6903 9.60798C15.3972 9.37607 16.153 9.33602 16.8804 9.49194C17.6079 9.64785 18.2808 9.99414 18.8306 10.4954C19.3803 10.9966 19.7871 11.6349 20.0093 12.3449C20.2316 13.0549 20.2613 13.8111 20.0954 14.5364C19.9296 15.2616 19.5741 15.9298 19.0654 16.4726C18.5567 17.0155 17.913 17.4135 17.2 17.626Z" fill="#0066F9"/>
</svg>
